# xmcd
# 
# Track frame offsets:
#     150
#     32730
#     62720
#     80650
#     109627
#     150590
#     172852
#     223925
#     240910
# 
# Disc length: 3668
# 
# Revision: 0
# Processed by: cddbd v1.5.2PL0 Copyright (c) Steve Scherf et al.
# Submitted via: BonkEnc v1.0.5
# 
DISCID=6b0e5209
DTITLE=Robillard Duke - Stretchin' Out (live)
DYEAR=1998
DGENRE=Blues
TTITLE0=Too Hot To Handle
TTITLE1=Never Let You Go
TTITLE2=Midnight Canon Ball
TTITLE3=Gee I Wish
TTITLE4=Glamour Girl
TTITLE5=That's My Life
TTITLE6=Dyin' Flu
TTITLE7=Tell Me Why
TTITLE8=Don't Leave Me Baby
EXTD=
EXTT0=
EXTT1=
EXTT2=
EXTT3=
EXTT4=
EXTT5=
EXTT6=
EXTT7=
EXTT8=
PLAYORDER=
